<?xml version="1.0" ?>
<!DOCTYPE svg  PUBLIC '-//W3C//DTD SVG 1.1//EN'  'http://www.w3.org/Graphics/SVG/1.1/DTD/svg11.dtd'>
<!-- Uploaded to: SVG Repo, www.svgrepo.com, Generator: SVG Repo Mixer Tools -->
<svg width="800px" height="800px" viewBox="0 0 512 512" version="1.1" xml:space="preserve" xmlns="http://www.w3.org/2000/svg" xmlns:xlink="http://www.w3.org/1999/xlink">
<g id="_x35_21_x2C__power_x2C__knowledge_x2C__education_x2C__books">
<g>
<path d="M136,386l-7.52,60.15C127.06,457.49,117.43,466,106,466s-21.06-8.51-22.48-19.85L76,386H136z" style="fill:#95A5A5;"/>
<path d="M93.854,455.15L86.333,395h48.542l1.125-9H76l7.52,60.15c1.023,8.175,6.324,14.858,13.479,17.964    C95.375,461.449,94.263,458.424,93.854,455.15z" style="fill:#7E8C8D;"/>
<path d="M436,386l-7.52,60.15C427.06,457.49,417.43,466,406,466s-21.06-8.51-22.48-19.85L376,386H436z" style="fill:#95A5A5;"/>
<path d="M393.52,455.15L386,395h48.875l1.125-9h-60l7.52,60.15c1.003,8.002,6.103,14.579,13.028,17.767    C394.989,461.299,393.92,458.344,393.52,455.15z" style="fill:#7E8C8D;"/>
<polygon points="486,346 486,386 436,386 376,386 136,386 76,386 26,386 26,346   " style="fill:#73665C;"/>
<polygon points="35.5,355.834 486,355.834 486,346 26,346 26,386 35.5,386   " style="fill:#60534A;"/>
<path d="M446,316v30H101c-24.85,0-45-20.15-45-45c0-12.42,5.04-23.68,13.18-31.82    C77.32,261.04,88.58,256,101,256h5h40h40h40h200h20v30V316z" style="fill:#57606F;"/>
<path d="M58.833,313.667c0-12.42,5.04-23.68,13.18-31.82c8.14-8.14,19.4-13.18,31.82-13.18h5h40h40h40h200    H446V256h-20H226h-40h-40h-40h-5c-12.42,0-23.68,5.04-31.82,13.18C61.04,277.32,56,288.58,56,301    c0,5.672,1.06,11.094,2.976,16.093C58.891,315.961,58.833,314.821,58.833,313.667z" style="fill:#414A56;"/>
<polygon points="186,256 146,256 106,256 106,186 126,186 346,186 356,186 426,186 426,256 226,256   " style="fill:#FFEBBE;"/>
<polygon points="115.333,195.833 135.333,195.833 355.334,195.833 365.334,195.833 426,195.833 426,186     356,186 346,186 126,186 106,186 106,256 115.333,256   " style="fill:#E5D0A8;"/>
<path d="M346,186H126V86h230c13.8,0,26.3,5.6,35.35,14.65C400.4,109.7,406,122.2,406,136    c0,27.61-22.39,50-50,50H346z" style="fill:#FEBE76;"/>
<path d="M136,97.5h230c12.308,0,23.573,4.463,32.287,11.846c-1.991-3.151-4.313-6.072-6.938-8.696    C382.3,91.6,369.8,86,356,86H126v100h10V97.5z" style="fill:#E8A664;"/>
<rect height="20" width="20" x="246" y="126"/>
<rect height="20" width="20" x="216" y="126"/>
<rect height="20" width="20" x="186" y="126"/>
<rect height="20" width="20" x="156" y="126"/>
<path d="M446,351H101c-27.57,0-50-22.43-50-50c0-13.355,5.201-25.912,14.645-35.355S87.644,251,101,251h5c2.761,0,5,2.239,5,5    c0,2.762-2.239,5-5,5h-5c-10.685,0-20.729,4.16-28.284,11.716C65.161,280.271,61,290.314,61,301c0,22.056,17.944,40,40,40h340v-80    h-15c-2.762,0-5-2.238-5-5c0-2.761,2.238-5,5-5h20c2.762,0,5,2.239,5,5v90C451,348.762,448.762,351,446,351z"/>
<path d="M356,191c-2.762,0-5-2.239-5-5s2.238-5,5-5c24.813,0,45-20.187,45-45c0-12.013-4.683-23.312-13.186-31.814    C379.312,95.683,368.013,91,356,91H131v95c0,2.761-2.239,5-5,5s-5-2.239-5-5V86c0-2.761,2.239-5,5-5h230    c14.684,0,28.493,5.723,38.885,16.114C405.277,107.505,411,121.315,411,136C411,166.327,386.327,191,356,191z"/>
<path d="M426,261H106c-2.761,0-5-2.238-5-5v-70c0-2.761,2.239-5,5-5h320c2.762,0,5,2.239,5,5v70C431,258.762,428.762,261,426,261z     M111,251h310v-60H111V251z"/>
<path d="M146,261c-2.761,0-5-2.238-5-5v-40c0-2.761,2.239-5,5-5s5,2.239,5,5v40C151,258.762,148.761,261,146,261z"/>
<path d="M186,261c-2.761,0-5-2.238-5-5v-40c0-2.761,2.239-5,5-5s5,2.239,5,5v40C191,258.762,188.761,261,186,261z"/>
<path d="M226,261c-2.761,0-5-2.238-5-5v-40c0-2.761,2.239-5,5-5s5,2.239,5,5v40C231,258.762,228.761,261,226,261z"/>
<path d="M446,321H126c-2.761,0-5-2.238-5-5s2.239-5,5-5h320c2.762,0,5,2.238,5,5S448.762,321,446,321z"/>
<path d="M446,291H126c-2.761,0-5-2.238-5-5s2.239-5,5-5h320c2.762,0,5,2.238,5,5S448.762,291,446,291z"/>
<path d="M346,191c-2.762,0-5-2.239-5-5v-70c0-2.761,2.238-5,5-5s5,2.239,5,5v70C351,188.761,348.762,191,346,191z"/>
<path d="M376,391H136c-2.761,0-5-2.238-5-5s2.239-5,5-5h240c2.762,0,5,2.238,5,5S378.762,391,376,391z"/>
<path d="M486,391h-50c-2.762,0-5-2.238-5-5s2.238-5,5-5h45v-30H31v30h45c2.761,0,5,2.238,5,5s-2.239,5-5,5H26    c-2.761,0-5-2.238-5-5v-40c0-2.762,2.239-5,5-5h460c2.762,0,5,2.238,5,5v40C491,388.762,488.762,391,486,391z"/>
<path d="M106,471c-13.915,0-25.712-10.416-27.441-24.229l-7.52-60.151c-0.178-1.423,0.264-2.854,1.213-3.929S74.566,381,76,381h60    c1.434,0,2.799,0.616,3.749,1.691s1.391,2.506,1.213,3.929l-7.52,60.15C131.712,460.584,119.915,471,106,471z M81.664,391    l6.817,54.53C89.585,454.349,97.117,461,106,461s16.415-6.651,17.519-15.471L130.336,391H81.664z"/>
<path d="M406,471c-13.914,0-25.711-10.416-27.441-24.228l-7.52-60.152c-0.179-1.423,0.264-2.854,1.213-3.929S374.565,381,376,381    h60c1.435,0,2.799,0.616,3.748,1.691s1.392,2.506,1.213,3.929l-7.52,60.15C431.711,460.584,419.914,471,406,471z M381.664,391    l6.816,54.53c1.105,8.818,8.637,15.47,17.52,15.47s16.414-6.651,17.52-15.472L430.336,391H381.664z"/>
</g>
</g>
<g id="Layer_1"/>
</svg>