<?xml version="1.0" ?>
<!DOCTYPE svg  PUBLIC '-//W3C//DTD SVG 1.1//EN'  'http://www.w3.org/Graphics/SVG/1.1/DTD/svg11.dtd'>
<!-- Uploaded to: SVG Repo, www.svgrepo.com, Generator: SVG Repo Mixer Tools -->
<svg width="800px" height="800px" viewBox="0 0 512 512" version="1.1" xml:space="preserve" xmlns="http://www.w3.org/2000/svg" xmlns:xlink="http://www.w3.org/1999/xlink">
<g id="_x35_11_x2C__student__x2C__notes_x2C__books__x2C__student_notes">
<g>
<path d="M461,87.68v400H61v-400h33.52c-0.03,0.02-0.06,0.04-0.09,0.06h355.24c0.65,0,1.29-0.02,1.92-0.06    H461z" style="fill:#F0F1F1;"/>
<path d="M71.47,98.43h33.52c-0.03,0.02-0.06,0.04-0.09,0.06h355.24c0.291,0,0.573-0.019,0.86-0.027V87.68    h-9.41c-0.63,0.04-1.27,0.06-1.92,0.06H94.43c0.03-0.02,0.06-0.04,0.09-0.06H61v400h10.47V98.43z" style="fill:#DEE0E0;"/>
<path d="M471.9,35.22c5.64,5.76,9.1,13.7,9.1,22.46c0,16.42-12.82,29.09-29.41,30H94.52    c10.54-6.45,17.42-17.14,17.42-30.46c0-12.9-6.45-24.42-16.59-31.33h354.32C458.42,25.89,466.26,29.46,471.9,35.22z" style="fill:#FFEBBE;"/>
<g>
<g>
<g>
<path d="M106.773,38.14H450.92c8.75,0,16.59,3.57,22.23,9.33c3.531,3.607,6.208,8.069,7.716,13.052       c0.086-0.934,0.134-1.881,0.134-2.842c0-8.76-3.46-16.7-9.1-22.46c-5.641-5.76-13.48-9.33-22.23-9.33H95.35       C100.045,29.089,103.935,33.285,106.773,38.14z" style="fill:#E5D0A8;"/>
</g>
<g>
<path d="M113.19,69.47c0-3.426-0.467-6.75-1.326-9.92c-0.753,12.236-7.426,22.061-17.344,28.13h13.656       C111.367,82.446,113.19,76.308,113.19,69.47z" style="fill:#E5D0A8;"/>
</g>
</g>
</g>
<rect height="20" width="20" x="311" y="127.68"/>
<rect height="20" width="20" x="271" y="127.68"/>
<rect height="20" width="20" x="231" y="127.68"/>
<rect height="20" width="20" x="191" y="127.68"/>
<path d="M461,492.68H61c-2.761,0-5-2.238-5-5v-400c0-2.761,2.239-5,5-5h400c2.762,0,5,2.239,5,5v400    C466,490.441,463.762,492.68,461,492.68z M66,482.68h390v-390H66V482.68z"/>
<path d="M449.67,92.74H94.43c-2.761,0-5-2.239-5-5s2.239-5,5-5h355.24c0.543,0,1.077-0.017,1.603-0.05    C465.388,81.916,476,71.165,476,57.68c0-7.175-2.725-13.909-7.672-18.962c-4.943-5.048-11.569-7.828-18.658-7.828H95.35    c-2.761,0-5-2.239-5-5s2.239-5,5-5h354.32c9.8,0,18.963,3.847,25.803,10.832C482.262,38.655,486,47.874,486,57.68    c0,18.881-14.676,33.925-34.137,34.993C451.175,92.717,450.422,92.74,449.67,92.74z"/>
<path d="M31,372.68c-2.761,0-5-2.238-5-5v-300c0-14.37,5.44-27.266,15.318-36.313c9.667-8.854,22.636-13.054,36.5-11.838    l17.915,1.376c0.872,0.067,1.71,0.361,2.433,0.854c11.756,8.011,18.774,21.268,18.774,35.462c0,2.761-2.239,5-5,5s-5-2.239-5-5    c0-10.454-4.967-20.247-13.353-26.451l-16.59-1.274c-11.099-0.979-21.351,2.309-28.924,9.246C40.288,45.872,36,56.149,36,67.68    v300C36,370.441,33.761,372.68,31,372.68z"/>
<path d="M94.483,92.69c-1.613,0-3.198-0.763-4.158-2.191c-1.54-2.292-0.976-5.369,1.316-6.909c0.059-0.04,0.208-0.138,0.269-0.175    c9.692-5.932,15.03-15.234,15.03-26.195c0-2.761,2.239-5,5-5s5,2.239,5,5c0,14.355-7.211,27.005-19.787,34.71    C96.327,92.443,95.4,92.69,94.483,92.69z"/>
<path d="M391,192.68H131c-2.761,0-5-2.239-5-5s2.239-5,5-5h260c2.762,0,5,2.239,5,5S393.762,192.68,391,192.68z"/>
<path d="M391,232.68H131c-2.761,0-5-2.239-5-5s2.239-5,5-5h260c2.762,0,5,2.239,5,5S393.762,232.68,391,232.68z"/>
<path d="M391,272.68H131c-2.761,0-5-2.238-5-5s2.239-5,5-5h260c2.762,0,5,2.238,5,5S393.762,272.68,391,272.68z"/>
<path d="M391,312.68H131c-2.761,0-5-2.238-5-5s2.239-5,5-5h260c2.762,0,5,2.238,5,5S393.762,312.68,391,312.68z"/>
<path d="M391,352.68H131c-2.761,0-5-2.238-5-5s2.239-5,5-5h260c2.762,0,5,2.238,5,5S393.762,352.68,391,352.68z"/>
<path d="M391,392.68H131c-2.761,0-5-2.238-5-5s2.239-5,5-5h260c2.762,0,5,2.238,5,5S393.762,392.68,391,392.68z"/>
<path d="M391,432.68h-77.04c-2.762,0-5-2.238-5-5s2.238-5,5-5H391c2.762,0,5,2.238,5,5S393.762,432.68,391,432.68z"/>
</g>
</g>
<g id="Layer_1"/>
</svg>