<?xml version="1.0" encoding="UTF-8"?><svg id="DSA-Logo_colour_set" xmlns="http://www.w3.org/2000/svg" xmlns:xlink="http://www.w3.org/1999/xlink" viewBox="0 0 133.46 71.72"><defs><style>.cls-1{fill:#2e75bf;}.cls-2{fill:#484848;}</style><symbol id="DSA-Logo_colour" viewBox="0 0 133.45 71.72"><g><g><path class="cls-1" d="M50,35.69l-.07-1.47-.16-1.37-.24-1.29-.22-.8-.26-.76-.3-.72-.52-1.02-.4-.65-.67-.92-.49-.58-.8-.82-.57-.51-.62-.48-.97-.66-.69-.4-.72-.35-.76-.32-1.18-.41-1.25-.32-1.03-.2-1.63-.19-2.45-.14-16.67-.04v29.21h15.37l2.47-.08,2.14-.2,1.1-.18,1.53-.36,1.19-.37,1.08-.42,1-.46,1.15-.69,.93-.7,.63-.54,.29-.29,.57-.61,.76-.98,.47-.71,.42-.74,.39-.78,.4-1.01,.23-.72,.26-1.14,.13-.79,.13-1.24,.04-1.31v-.49Zm-8.39,.64l-.07,1.53-.12,1.04-.17,.92-.23,.83-.38,.95-.44,.82-.37,.52-.52,.57-.44,.34-.82,.47-1.15,.44-1.29,.3-2.32,.2-7.81,.04V26.54l5.5,.02,1.78,.05,1.69,.11,.98,.14,1.24,.3,.89,.33,.6,.3,.55,.35,.49,.38,.45,.45,.67,.87,.54,1.01,.26,.71,.21,.82,.15,.93,.12,1.41,.02,1.59Z"/><path class="cls-1" d="M72.32,33c-1.51-.34-2.96-.63-4.25-.88-4.83-.95-8.01-1.58-7.83-3.58,.14-1.52,2.26-2.37,6.3-2.53,6.34-.25,6.79,3.85,6.81,4.02v.17s7.87-.26,7.87-.26h.16s0-.17,0-.17c0-.11,.09-2.7-2.19-5.09-2.43-2.54-6.51-3.82-12.14-3.82-12.9,0-14.45,5.71-14.52,8.16-.05,1.83,.69,5.2,6.2,7.23,3.16,1.17,10.72,2.62,11.29,2.7,3.39,.47,4.51,1.96,4.43,3.19-.13,1.85-2.92,3.83-7.78,3.64-7.29-.29-7.66-5.16-7.67-5.37v-.18s-7.85,.58-7.85,.58v.17c0,.1,.53,10.07,15.17,10.07,6.63,0,11.31-1.32,13.9-3.92,1.86-1.87,2.25-4.03,2.24-5.52-.01-4.32-3.24-7.06-10.15-8.62Z"/><path class="cls-1" d="M104.35,21.3h-8.15l-14.62,29.19h8.34l3.06-6.55h14.62l3.24,6.55h8.57l-15.05-29.19Zm.67,17.44h-9.58l4.75-10.12,4.83,10.12Z"/></g><g><polygon class="cls-2" points="16.88 69.32 16.32 68.97 14.5 67.62 12.14 65.46 10.57 63.74 8.83 61.53 7.03 58.72 5.69 56.17 4.72 53.93 3.76 51.16 3.24 49.26 2.66 46.36 2.35 43.89 2.22 41.39 2.25 39.38 2.52 36.36 2.95 33.86 3.58 31.37 4.24 29.39 5.04 27.44 6.22 25.02 7.34 23.15 8.94 20.84 10.02 19.49 12.01 17.31 13.79 15.62 15.22 14.4 16.76 13.21 16.96 13.08 17.37 12.96 116.16 12.94 116.16 10.71 17.52 10.71 16.97 10.78 16.2 10.98 15.78 11.2 13.84 12.68 11.83 14.4 10.43 15.75 8.72 17.6 7.56 19.02 6.12 20.96 4.86 22.95 3.49 25.5 2.78 27.06 1.97 29.15 1.16 31.79 .67 33.94 .32 36.08 .1 38.22 0 40.9 .1 43.55 .38 46.18 .74 48.25 1.35 50.8 2.13 53.29 3.25 56.17 4.61 58.93 5.63 60.7 6.74 62.39 8.56 64.79 10.22 66.66 11.99 68.38 13.49 69.64 15.46 71.07 16.11 71.39 17.24 71.71 116.16 71.72 116.16 69.5 17.58 69.51 16.88 69.32"/><polygon class="cls-2" points="133.42 28.57 133.26 26.42 132.98 24.29 132.42 21.6 131.83 19.47 130.67 16.33 129.45 13.76 127.98 11.23 126.63 9.26 124.73 6.88 123.02 5.03 121.14 3.24 119.1 1.54 118.01 .71 117.13 .28 116.35 .05 116.35 .05 116.14 0 17.17 0 17.17 2.22 115.87 2.22 116.64 2.47 117.73 3.28 119.19 4.48 121.01 6.16 122.66 7.89 124.51 10.11 126.11 12.42 127.48 14.78 128.63 17.2 129.56 19.65 130.15 21.63 130.7 24.14 131.05 26.65 131.24 29.67 131.18 32.16 130.87 35.15 130.43 37.57 129.84 39.97 129.08 42.29 127.97 45 126.66 47.57 125.15 50.03 123.78 51.94 121.95 54.07 120.32 55.7 118.6 57.18 116.79 58.49 115.94 58.79 17.17 58.79 17.17 61 116.01 61 116.24 60.98 116.82 60.85 117.52 60.61 118.8 59.8 120.73 58.29 122.54 56.64 124.25 54.83 125.83 52.89 127.28 50.83 128.6 48.66 129.78 46.38 130.98 43.53 131.81 41.08 132.49 38.55 133.07 35.46 133.36 32.82 133.45 30.17 133.42 28.57"/></g></g></symbol></defs><g id="DSA_Logo_2018_colour_solo"><use width="133.45" height="71.72" xlink:href="#DSA-Logo_colour"/></g></svg>