<!DOCTYPE svg PUBLIC "-//W3C//DTD SVG 1.1//EN" "http://www.w3.org/Graphics/SVG/1.1/DTD/svg11.dtd">
<!-- Uploaded to: SVG Repo, www.svgrepo.com, Transformed by: SVG Repo Mixer Tools -->
<svg height="800px" width="800px" version="1.1" id="Layer_1" xmlns="http://www.w3.org/2000/svg" xmlns:xlink="http://www.w3.org/1999/xlink" viewBox="0 0 512.002 512.002" xml:space="preserve" fill="#000000">
<g id="SVGRepo_bgCarrier" stroke-width="0"/>
<g id="SVGRepo_tracerCarrier" stroke-linecap="round" stroke-linejoin="round"/>
<g id="SVGRepo_iconCarrier"> <polygon style="fill:#676356;" points="259.863,222.297 259.863,53.99 496.282,18.527 496.282,222.297 "/> <g> <path style="fill:#7c6b36;" d="M496.282,238.015H259.863c-8.679,0-15.718-7.037-15.718-15.718V53.99 c0-7.78,5.691-14.39,13.387-15.543L493.951,2.984c4.527-0.679,9.121,0.648,12.589,3.634s5.462,7.336,5.462,11.911v203.769 C512,230.978,504.963,238.015,496.282,238.015z M275.581,206.579h204.983v-169.8L275.581,67.525V206.579z"/> <path style="fill:#7c6b36;" d="M188.839,240.727H15.718C7.039,240.727,0,233.691,0,225.01V89.288c0-7.793,5.71-14.409,13.42-15.55 l173.121-25.592c4.52-0.666,9.11,0.665,12.567,3.65c3.46,2.985,5.449,7.329,5.449,11.898v161.313 C204.557,233.691,197.518,240.727,188.839,240.727z M31.436,209.292h141.685V81.909L31.436,102.853V209.292z"/> <path style="fill:#7c6b36;" d="M496.282,509.192c-0.775,0-1.553-0.058-2.331-0.174l-236.419-35.463 c-7.695-1.154-13.387-7.763-13.387-15.544V296.036c0-8.681,7.038-15.718,15.718-15.718h79.567c8.679,0,15.718,7.037,15.718,15.718 c0,8.681-7.039,15.718-15.718,15.718h-63.85v132.722l204.983,30.747v-163.47h-50.508c-8.679,0-15.718-7.037-15.718-15.718 c0-8.681,7.039-15.718,15.718-15.718h66.226c8.679,0,15.718,7.037,15.718,15.718v197.438c0,4.576-1.995,8.925-5.462,11.911 C503.666,507.857,500.021,509.192,496.282,509.192z"/> </g> <polygon style="fill:#676356;" points="15.718,422.713 15.718,296.036 188.837,296.036 188.837,448.305 "/> <path style="fill:#7c6b36;" d="M188.839,464.023c-0.764,0-1.533-0.057-2.298-0.168L13.42,438.263C5.71,437.123,0,430.508,0,422.715 V296.036c0-8.681,7.039-15.718,15.718-15.718h173.121c8.679,0,15.718,7.037,15.718,15.718v152.269c0,4.569-1.99,8.914-5.449,11.898 C196.236,462.684,192.583,464.023,188.839,464.023z M31.436,409.149l141.685,20.944V311.752H31.436V409.149z"/> </g>
</svg>