<?xml version="1.0" encoding="iso-8859-1"?>
<!-- Uploaded to: SVG Repo, www.svgrepo.com, Generator: SVG Repo Mixer Tools -->
<svg height="800px" width="800px" version="1.1" id="Layer_1" xmlns="http://www.w3.org/2000/svg" xmlns:xlink="http://www.w3.org/1999/xlink" 
	 viewBox="0 0 512 512" xml:space="preserve">
<g transform="translate(1 1)">
	<g>
		<polygon style="fill:#FDCC00;" points="144.067,144.067 220.867,144.067 220.867,109.933 144.067,109.933 		"/>
		<polygon style="fill:#FDCC00;" points="297.667,255 365.933,255 365.933,220.867 297.667,220.867 		"/>
	</g>
	<path style="fill:#FFA800;" d="M289.133,161.133H229.4c-5.12,0-8.533-4.267-8.533-8.533v-51.2c0-5.12,3.413-8.533,8.533-8.533
		h59.733c5.12,0,8.533,4.267,8.533,8.533v51.2C297.667,156.867,293.4,161.133,289.133,161.133"/>
	<path style="fill:#FDCC00;" d="M266.093,161.133H226.84c-3.413,0-5.973-4.267-5.973-8.533v-51.2c0-5.12,2.56-8.533,5.973-8.533
		h39.253c3.413,0,5.973,4.267,5.973,8.533v51.2C272.067,156.867,269.507,161.133,266.093,161.133"/>
	<path style="fill:#FFA800;" d="M289.133,272.067H229.4c-5.12,0-8.533-4.267-8.533-8.533v-51.2c0-5.12,3.413-8.533,8.533-8.533
		h59.733c5.12,0,8.533,4.267,8.533,8.533v51.2C297.667,267.8,293.4,272.067,289.133,272.067"/>
	<path style="fill:#FDCC00;" d="M266.093,272.067H226.84c-3.413,0-5.973-4.267-5.973-8.533v-51.2c0-5.12,2.56-8.533,5.973-8.533
		h39.253c3.413,0,5.973,4.267,5.973,8.533v51.2C272.067,267.8,269.507,272.067,266.093,272.067"/>
	<polygon style="fill:#FFFFFF;" points="7.533,161.133 24.6,161.133 24.6,92.867 7.533,92.867 	"/>
	<polygon style="fill:#FDCC00;" points="24.6,161.133 41.667,161.133 41.667,92.867 24.6,92.867 	"/>
	<path id="SVGCleanerId_0" d="M144.067,169.667h-34.133c-5.12,0-8.533-3.413-8.533-8.533V92.867c0-5.12,3.413-8.533,8.533-8.533
		h34.133c5.12,0,8.533,3.413,8.533,8.533v68.267C152.6,166.253,149.187,169.667,144.067,169.667z M118.467,152.6h17.067v-51.2
		h-17.067V152.6z"/>
	<g>
		<polygon style="fill:#FDCC00;" points="237.933,451.267 263.533,451.267 263.533,272.067 237.933,272.067 		"/>
		<polygon style="fill:#FDCC00;" points="237.933,203.8 263.533,203.8 263.533,169.667 237.933,169.667 		"/>
	</g>
	<polygon style="fill:#FFA800;" points="263.533,203.8 289.133,203.8 289.133,169.667 263.533,169.667 	"/>
	<polygon style="fill:#FDCC00;" points="237.933,92.867 263.533,92.867 263.533,58.733 237.933,58.733 	"/>
	<g>
		<polygon style="fill:#FFA800;" points="263.533,92.867 289.133,92.867 289.133,58.733 263.533,58.733 		"/>
		<polygon style="fill:#FFA800;" points="263.533,451.267 289.133,451.267 289.133,272.067 263.533,272.067 		"/>
	</g>
	<polygon style="fill:#FFE100;" points="391.533,169.667 476.867,169.667 476.867,118.467 391.533,118.467 	"/>
	<polygon style="fill:#FFFFFF;" points="374.467,169.667 391.533,169.667 391.533,118.467 374.467,118.467 	"/>
	<polygon style="fill:#FFA800;" points="476.867,169.667 493.933,169.667 493.933,118.467 476.867,118.467 	"/>
	<polygon style="fill:#FFE100;" points="33.133,58.733 118.467,58.733 118.467,7.533 33.133,7.533 	"/>
	<polygon style="fill:#FFFFFF;" points="16.067,58.733 33.133,58.733 33.133,7.533 16.067,7.533 	"/>
	<polygon style="fill:#FFA800;" points="118.467,58.733 135.533,58.733 135.533,7.533 118.467,7.533 	"/>
	<g>
		<polygon style="fill:#FDCC00;" points="365.933,272.067 400.067,272.067 400.067,203.8 365.933,203.8 		"/>
		<polygon style="fill:#FDCC00;" points="109.933,161.133 144.067,161.133 144.067,92.867 109.933,92.867 		"/>
	</g>
	<polygon style="fill:#FFA800;" points="485.4,272.067 502.467,272.067 502.467,203.8 485.4,203.8 	"/>
	<polygon style="fill:#FDCC00;" points="468.333,272.067 485.4,272.067 485.4,203.8 468.333,203.8 	"/>
	<path style="fill:#FFE100;" d="M408.6,169.667h-17.067V203.8h8.533v68.267h-8.533v102.4c0,23.893,18.773,42.667,42.667,42.667
		c14.507,0,25.6-18.773,25.6-42.667v-102.4V203.8v-34.133H408.6z"/>
	<path style="fill:#FFA800;" d="M476.867,212.333V178.2h-25.6v34.133V280.6v93.867c0,23.893-2.56,42.667-17.067,42.667
		c23.893,0,42.667-18.773,42.667-42.667V280.6h-8.533v-68.267H476.867z"/>
	<path style="fill:#FFE100;" d="M50.2,58.733H33.133v34.133h8.533v68.267h-8.533v102.4c0,23.893,18.773,42.667,42.667,42.667
		c14.507,0,25.6-18.773,25.6-42.667v-102.4V92.867V58.733H50.2z"/>
	<path style="fill:#FFA800;" d="M118.467,101.4V58.733h-25.6V101.4v68.267v93.867c0,23.893-2.56,42.667-17.067,42.667
		c23.893,0,42.667-18.773,42.667-42.667v-93.867h-8.533V101.4H118.467z"/>
	<path style="fill:#3DB9F9;" d="M391.533,340.333v34.133c0,23.893,18.773,42.667,42.667,42.667
		c23.893,0,42.667-18.773,42.667-42.667v-34.133H391.533z"/>
	<path style="fill:#63D3FD;" d="M391.533,340.333v34.133c0,23.893,24.747,42.667,25.6,42.667c23.893,0,34.133-18.773,34.133-42.667
		v-34.133H391.533z"/>
	<path style="fill:#3DB9F9;" d="M33.133,195.267v68.267c0,23.893,18.773,42.667,42.667,42.667s42.667-18.773,42.667-42.667v-68.267
		H33.133z"/>
	<path style="fill:#63D3FD;" d="M33.133,195.267v68.267c0,23.893,24.747,42.667,25.6,42.667c23.893,0,34.133-18.773,34.133-42.667
		v-68.267H33.133z"/>
	<path style="fill:#FFE100;" d="M453.827,502.467H306.2L290.84,485.4h-63.147l-15.36,17.067H56.173c-12.8,0-23.04-11.093-23.04-25.6
		c0-14.507,10.24-25.6,23.04-25.6h397.653c12.8,0,23.04,11.093,23.04,25.6C476.867,491.373,466.627,502.467,453.827,502.467"/>
	<path style="fill:#FFFFFF;" d="M33.133,476.867c0-14.507,10.24-25.6,23.04-25.6h-23.04c-14.507,0-25.6,11.093-25.6,25.6
		c0,14.507,11.093,25.6,25.6,25.6h23.04C43.373,502.467,33.133,491.373,33.133,476.867"/>
	<path style="fill:#FFA800;" d="M476.867,451.267h-23.04c12.8,0,23.04,11.093,23.04,25.6c0,14.507-10.24,25.6-23.04,25.6h23.04
		c14.507,0,25.6-11.093,25.6-25.6C502.467,462.36,491.373,451.267,476.867,451.267"/>
	<path d="M476.867,511H306.2c-2.56,0-4.267-0.853-5.973-2.56l-14.507-14.507h-52.907l-14.507,14.507
		c-1.707,1.707-3.413,2.56-5.973,2.56h-179.2C14.36,511-1,495.64-1,476.867s15.36-34.133,34.133-34.133h443.733
		c18.773,0,34.133,15.36,34.133,34.133S495.64,511,476.867,511z M309.613,493.933h167.253c9.387,0,17.067-7.68,17.067-17.067
		s-7.68-17.067-17.067-17.067H33.133c-9.387,0-17.067,7.68-17.067,17.067s7.68,17.067,17.067,17.067H208.92l14.507-14.507
		c1.707-1.707,3.413-2.56,5.973-2.56h59.733c2.56,0,4.267,0.853,5.973,2.56L309.613,493.933z"/>
	<path d="M135.533,67.267H16.067c-5.12,0-8.533-3.413-8.533-8.533v-51.2C7.533,2.413,10.947-1,16.067-1h119.467
		c5.12,0,8.533,3.413,8.533,8.533v51.2C144.067,63.853,140.653,67.267,135.533,67.267z M24.6,50.2H127V16.067H24.6V50.2z"/>
	<path d="M75.8,314.733c-28.16,0-51.2-23.04-51.2-51.2v-68.267c0-5.12,3.413-8.533,8.533-8.533h85.333
		c5.12,0,8.533,3.413,8.533,8.533v68.267C127,291.693,103.96,314.733,75.8,314.733z M41.667,203.8v59.733
		c0,18.773,15.36,34.133,34.133,34.133s34.133-15.36,34.133-34.133V203.8H41.667z"/>
	<path d="M289.133,169.667H229.4c-5.12,0-9.387-1.707-12.8-5.12c-2.56-3.413-4.267-8.533-4.267-12.8V101.4
		c0-4.267,1.707-8.533,4.267-11.947c3.413-3.413,7.68-5.12,12.8-5.12h59.733c9.387,0,17.067,7.68,17.067,17.067v51.2
		C306.2,161.987,298.52,169.667,289.133,169.667z M229.4,101.4v51.2h59.733l0,0v-51.2H229.4z"/>
	<path d="M289.133,280.6H229.4c-5.12,0-9.387-1.707-12.8-5.12c-2.56-3.413-4.267-8.533-4.267-12.8v-50.347
		c0-4.267,1.707-8.533,4.267-11.947c3.413-3.413,7.68-5.12,12.8-5.12h59.733c9.387,0,17.067,7.68,17.067,17.067v51.2
		C306.2,272.92,298.52,280.6,289.133,280.6z M229.4,212.333v51.2h59.733l0,0v-51.2H229.4z"/>
	<path d="M289.133,101.4H229.4c-5.12,0-8.533-3.413-8.533-8.533V58.733c0-5.12,3.413-8.533,8.533-8.533h59.733
		c5.12,0,8.533,3.413,8.533,8.533v34.133C297.667,97.987,294.253,101.4,289.133,101.4z M237.933,84.333H280.6V67.267h-42.667V84.333
		z"/>
	<path d="M289.133,212.333H229.4c-5.12,0-8.533-3.413-8.533-8.533v-42.667c0-5.12,3.413-8.533,8.533-8.533h59.733
		c5.12,0,8.533,3.413,8.533,8.533V203.8C297.667,208.92,294.253,212.333,289.133,212.333z M237.933,195.267H280.6v-25.6h-42.667
		V195.267z"/>
	<path d="M289.133,459.8H229.4c-5.12,0-8.533-3.413-8.533-8.533v-179.2c0-5.12,3.413-8.533,8.533-8.533h59.733
		c5.12,0,8.533,3.413,8.533,8.533v179.2C297.667,456.387,294.253,459.8,289.133,459.8z M237.933,442.733H280.6V280.6h-42.667
		V442.733z"/>
	<path d="M220.867,152.6h-76.8c-5.12,0-8.533-3.413-8.533-8.533v-34.133c0-5.12,3.413-8.533,8.533-8.533h76.8
		c5.12,0,8.533,3.413,8.533,8.533v34.133C229.4,149.187,225.987,152.6,220.867,152.6z M152.6,135.533h59.733v-17.067H152.6V135.533z
		"/>
	<g>
		<path id="SVGCleanerId_0_1_" d="M144.067,169.667h-34.133c-5.12,0-8.533-3.413-8.533-8.533V92.867c0-5.12,3.413-8.533,8.533-8.533
			h34.133c5.12,0,8.533,3.413,8.533,8.533v68.267C152.6,166.253,149.187,169.667,144.067,169.667z M118.467,152.6h17.067v-51.2
			h-17.067V152.6z"/>
	</g>
	<path d="M41.667,169.667H7.533c-5.12,0-8.533-3.413-8.533-8.533V92.867c0-5.12,3.413-8.533,8.533-8.533h34.133
		c5.12,0,8.533,3.413,8.533,8.533v68.267C50.2,166.253,46.787,169.667,41.667,169.667z M16.067,152.6h17.067v-51.2H16.067V152.6z"/>
	<path d="M75.8,314.733c-28.16,0-51.2-23.04-51.2-51.2v-102.4c0-5.12,3.413-8.533,8.533-8.533v-51.2
		c-5.12,0-8.533-3.413-8.533-8.533V58.733c0-5.12,3.413-8.533,8.533-8.533h85.333c5.12,0,8.533,3.413,8.533,8.533v34.133
		c0,5.12-3.413,8.533-8.533,8.533v51.2c5.12,0,8.533,3.413,8.533,8.533v102.4C127,291.693,103.96,314.733,75.8,314.733z
		 M41.667,169.667v93.867c0,18.773,15.36,34.133,34.133,34.133s34.133-15.36,34.133-34.133v-93.867c-5.12,0-8.533-3.413-8.533-8.533
		V92.867c0-5.12,3.413-8.533,8.533-8.533V67.267H41.667v17.067c5.12,0,8.533,3.413,8.533,8.533v68.267
		C50.2,166.253,46.787,169.667,41.667,169.667z"/>
	<path d="M493.933,178.2H374.467c-5.12,0-8.533-3.413-8.533-8.533v-51.2c0-5.12,3.413-8.533,8.533-8.533h119.467
		c5.12,0,8.533,3.413,8.533,8.533v51.2C502.467,174.787,499.053,178.2,493.933,178.2z M383,161.133h102.4V127H383V161.133z"/>
	<path d="M434.2,425.667c-28.16,0-51.2-23.04-51.2-51.2v-34.133c0-5.12,3.413-8.533,8.533-8.533h85.333
		c5.12,0,8.533,3.413,8.533,8.533v34.133C485.4,402.627,462.36,425.667,434.2,425.667z M400.067,348.867v25.6
		c0,18.773,15.36,34.133,34.133,34.133c18.773,0,34.133-15.36,34.133-34.133v-25.6H400.067z"/>
	<path d="M365.933,263.533h-68.267c-5.12,0-8.533-3.413-8.533-8.533v-34.133c0-5.12,3.413-8.533,8.533-8.533h68.267
		c5.12,0,8.533,3.413,8.533,8.533V255C374.467,260.12,371.053,263.533,365.933,263.533z M306.2,246.467h51.2V229.4h-51.2V246.467z"
		/>
	<path d="M400.067,280.6h-34.133c-5.12,0-8.533-3.413-8.533-8.533V203.8c0-5.12,3.413-8.533,8.533-8.533h34.133
		c5.12,0,8.533,3.413,8.533,8.533v68.267C408.6,277.187,405.187,280.6,400.067,280.6z M374.467,263.533h17.067v-51.2h-17.067
		V263.533z"/>
	<path d="M502.467,280.6h-34.133c-5.12,0-8.533-3.413-8.533-8.533V203.8c0-5.12,3.413-8.533,8.533-8.533h34.133
		c5.12,0,8.533,3.413,8.533,8.533v68.267C511,277.187,507.587,280.6,502.467,280.6z M476.867,263.533h17.067v-51.2h-17.067V263.533z
		"/>
	<path d="M434.2,425.667c-28.16,0-51.2-23.04-51.2-51.2v-102.4c0-5.12,3.413-8.533,8.533-8.533v-51.2
		c-5.12,0-8.533-3.413-8.533-8.533v-34.133c0-5.12,3.413-8.533,8.533-8.533h85.333c5.12,0,8.533,3.413,8.533,8.533V203.8
		c0,5.12-3.413,8.533-8.533,8.533v51.2c5.12,0,8.533,3.413,8.533,8.533v102.4C485.4,402.627,462.36,425.667,434.2,425.667z
		 M400.067,280.6v93.867c0,18.773,15.36,34.133,34.133,34.133c18.773,0,34.133-15.36,34.133-34.133V280.6
		c-5.12,0-8.533-3.413-8.533-8.533V203.8c0-5.12,3.413-8.533,8.533-8.533V178.2h-68.267v17.067c5.12,0,8.533,3.413,8.533,8.533
		v68.267C408.6,277.187,405.187,280.6,400.067,280.6z"/>
</g>
</svg>