<?xml version="1.0" encoding="iso-8859-1"?>
<!-- Uploaded to: SVG Repo, www.svgrepo.com, Generator: SVG Repo Mixer Tools -->
<svg version="1.1" id="Layer_1" xmlns="http://www.w3.org/2000/svg" xmlns:xlink="http://www.w3.org/1999/xlink" 
	 viewBox="0 0 512.001 512.001" xml:space="preserve">
<path style="fill:#222020;" d="M317.705,63.552h-246.2c-17.527-0.053-31.723-14.249-31.776-31.777l0,0
	C39.781,14.249,53.978,0.052,71.505,0h246.2V63.552z"/>
<path style="fill:#CCCCCC;" d="M317.705,54.6H73.201c-12.579-0.052-22.76-10.244-22.8-22.824l0,0
	c0.039-12.579,10.22-22.772,22.8-22.824h244.504V54.6z"/>
<rect x="80.813" y="63.551" width="236.895" height="293.876"/>
<path style="fill:#666666;" d="M71.505,63.552c-17.121-0.058-31.131-13.641-31.72-30.752l-0.056,292.8
	c0.052,17.528,14.249,31.723,31.776,31.776H80.8V63.552H71.505z"/>
<path style="fill:#222020;" d="M472.273,218.121h-246.2c-17.528-0.052-31.723-14.249-31.776-31.776l0,0
	c0.052-17.528,14.249-31.723,31.776-31.776h246.2V218.121z"/>
<path style="fill:#CCCCCC;" d="M472.273,209.168H227.769c-12.589-0.039-22.785-10.236-22.824-22.824l0,0
	c0.039-12.589,10.236-22.785,22.824-22.824h244.504V209.168z"/>
<rect x="235.374" y="218.123" style="fill:#E21B1B;" width="236.895" height="293.876"/>
<path style="fill:#F91E1E;" d="M226.073,218.121c-17.106-0.057-31.11-13.617-31.72-30.712l-0.056,292.8
	c0.044,17.534,14.242,31.739,31.776,31.792h9.304v-293.88H226.073z"/>
</svg>