<?xml version="1.0" encoding="iso-8859-1"?>
<!-- Uploaded to: SVG Repo, www.svgrepo.com, Generator: SVG Repo Mixer Tools -->
<svg version="1.1" id="Layer_1" xmlns="http://www.w3.org/2000/svg" xmlns:xlink="http://www.w3.org/1999/xlink" 
	 viewBox="0 0 512 512" xml:space="preserve">
<polygon style="fill:#F5AC51;" points="399.473,512 433.231,512 433.231,0 399.473,0 376.967,256 "/>
<polygon style="fill:#FFD159;" points="264.44,512 399.473,512 399.473,0 365.714,0 "/>
<polygon style="fill:#FFEAB2;" points="365.714,0 365.714,410.725 286.945,432.207 331.956,0 "/>
<polygon style="fill:#FFF3D4;" points="331.956,0 331.956,409.701 264.44,512 0,512 0,0 "/>
<polygon style="fill:#E26142;" points="466.989,0 466.989,45.011 489.495,67.516 512,45.011 512,0 "/>
<polygon style="fill:#D8D1D0;" points="466.989,45.011 466.989,90.022 489.495,112.527 512,90.022 512,45.011 "/>
<polygon style="fill:#FFAB97;" points="489.492,512 512,444.484 489.495,421.978 466.989,444.484 "/>
<rect x="466.989" y="90.022" style="fill:#3891E9;" width="45.011" height="354.462"/>
<polygon style="fill:#F5AC51;" points="264.44,410.725 264.44,512 365.714,410.725 "/>
</svg>