<?xml version="1.0" encoding="iso-8859-1"?>
<!-- Uploaded to: SVG Repo, www.svgrepo.com, Generator: SVG Repo Mixer Tools -->
<svg version="1.1" id="Layer_1" xmlns="http://www.w3.org/2000/svg" xmlns:xlink="http://www.w3.org/1999/xlink" 
	 viewBox="0 0 512 512" xml:space="preserve">
<path style="fill:#E26142;" d="M466.989,75.956c-23.268,0-42.198,18.929-42.198,42.198V264.44c0,4.661,3.778,8.44,8.44,8.44
	c4.662,0,8.44-3.779,8.44-8.44V118.154c0-13.961,11.359-25.319,25.319-25.319h22.503V75.956H466.989z"/>
<polygon style="fill:#FFE08F;" points="365.714,512 399.473,512 399.473,0 365.714,0 343.209,256 "/>
<polygon style="fill:#FFF3D4;" points="331.956,512 365.714,512 365.714,0 331.956,0 253.187,256 "/>
<polygon style="fill:#FFAB97;" points="472.615,0 472.615,45.011 489.495,67.516 506.374,45.011 506.374,0 "/>
<g>
	<polygon style="fill:#F1866D;" points="466.989,45.011 466.989,123.78 489.495,146.286 512,123.78 512,45.011 	"/>
	<polygon style="fill:#F1866D;" points="489.492,512 512,444.484 489.495,421.978 466.989,444.484 	"/>
</g>
<rect x="466.989" y="123.78" style="fill:#D8D1D0;" width="45.011" height="320.703"/>
<path style="fill:#F1866D;" d="M331.956,33.758v444.484c0,18.567-15.191,33.758-33.758,33.758l-67.516-256L298.198,0
	C316.765,0,331.956,15.191,331.956,33.758z"/>
<polygon style="fill:#95341D;" points="33.758,0 101.275,256 33.758,512 0,512 0,0 "/>
<path style="fill:#FFAB97;" d="M298.198,0v512H33.758V0H298.198z"/>
<polygon style="fill:#FFF3D4;" points="264.44,67.516 264.44,146.286 230.681,146.286 185.67,106.901 230.681,67.516 "/>
<rect x="101.275" y="67.516" style="fill:#FFFFFF;" width="129.407" height="78.769"/>
</svg>