<?xml version="1.0" encoding="utf-8"?><!-- Uploaded to: SVG Repo, www.svgrepo.com, Generator: SVG Repo Mixer Tools -->
<svg fill="#000000" width="800px" height="800px" viewBox="0 0 24 24" id="medical-receipt-3" data-name="Flat Color" xmlns="http://www.w3.org/2000/svg" class="icon flat-color"><path id="primary" d="M18,4V19.49L15.49,22H4a2,2,0,0,1-2-2V4A2,2,0,0,1,4,2H16A2,2,0,0,1,18,4Z" style="fill: rgb(0, 0, 0);"></path><path id="secondary" d="M17.73,13.73a2.52,2.52,0,0,1,3.54,0h0a2.52,2.52,0,0,1,0,3.54l-4,4a2.52,2.52,0,0,1-3.54,0h0a2.52,2.52,0,0,1,0-3.54ZM15,8a1,1,0,0,0-1-1H6A1,1,0,0,0,6,9h8A1,1,0,0,0,15,8Zm-2,4a1,1,0,0,0-1-1H6a1,1,0,0,0,0,2h6A1,1,0,0,0,13,12Z" style="fill: rgb(44, 169, 188);"></path></svg>