<?xml version="1.0" encoding="utf-8"?>
<!-- Uploaded to: SVG Repo, www.svgrepo.com, Generator: SVG Repo Mixer Tools -->
<svg width="800px" height="800px" viewBox="0 0 1024 1024" class="icon"  version="1.1" xmlns="http://www.w3.org/2000/svg"><path d="M880.688819 434.123282m-4.309533 0a4.309533 4.309533 0 1 0 8.619066 0 4.309533 4.309533 0 1 0-8.619066 0Z" fill="" /><path d="M155.65719 264.203369m-4.309533 0a4.309533 4.309533 0 1 0 8.619067 0 4.309533 4.309533 0 1 0-8.619067 0Z" fill="" /><path d="M428.801126 67.400323m-4.309533 0a4.309533 4.309533 0 1 0 8.619067 0 4.309533 4.309533 0 1 0-8.619067 0Z" fill="" /><path d="M784.852129 86.279745m-4.309534 0a4.309533 4.309533 0 1 0 8.619067 0 4.309533 4.309533 0 1 0-8.619067 0Z" fill="" /><path d="M116.870367 541.24626m-4.309534 0a4.309533 4.309533 0 1 0 8.619067 0 4.309533 4.309533 0 1 0-8.619067 0Z" fill="" /><path d="M155.65719 107.622634h-7.182555v-7.182555c0-3.898955-3.2836-7.182556-7.182556-7.182556s-7.182556 3.2836-7.182555 7.182556v7.182555h-7.182556c-3.898955 0-7.182556 3.2836-7.182555 7.182556s3.2836 7.182556 7.182555 7.182555h7.182556v7.182556c0 3.898955 3.2836 7.182556 7.182555 7.182555s7.182556-3.2836 7.182556-7.182555v-7.182556h7.182555c3.898955 0 7.182556-3.2836 7.182556-7.182555s-3.2836-7.182556-7.182556-7.182556z" fill="#F16723" /><path d="M735.189595 71.914634m-6.3614 0a6.3614 6.3614 0 1 0 12.722799 0 6.3614 6.3614 0 1 0-12.722799 0Z" fill="" /><path d="M859.141152 371.736925m-6.361399 0a6.3614 6.3614 0 1 0 12.722799 0 6.3614 6.3614 0 1 0-12.722799 0Z" fill="" /><path d="M840.466508 189.914346a24.347993 24.347993 0 0 1-24.420689-24.420689 24.347993 24.347993 0 0 1 24.420689-24.420689 24.347993 24.347993 0 0 1 24.420689 24.420689 24.347993 24.347993 0 0 1-24.420689 24.420689z m0-34.476267c-5.541267 0-10.055578 4.51431-10.055578 10.055578s4.51431 10.055578 10.055578 10.055577 10.055578-4.51431 10.055578-10.055577c0-5.540243-4.515334-10.055578-10.055578-10.055578z" fill="#FBD20A" /><path d="M909.419041 739.691619h-7.182555v-7.182556c0-3.898955-3.2836-7.182556-7.182556-7.182556s-7.182556 3.2836-7.182556 7.182556v7.182556h-7.182555c-3.898955 0-7.182556 3.2836-7.182556 7.182555s3.2836 7.182556 7.182556 7.182556h7.182555v7.182555c0 3.898955 3.2836 7.182556 7.182556 7.182556s7.182556-3.2836 7.182556-7.182556v-7.182555h7.182555c3.898955 0 7.182556-3.2836 7.182556-7.182556s-3.2836-7.182556-7.182556-7.182555z" fill="#4E9BD4" /><path d="M141.292079 631.541683h-7.182555v-7.182555c0-3.898955-3.2836-7.182556-7.182556-7.182556s-7.182556 3.2836-7.182555 7.182556v7.182555h-7.182556c-3.898955 0-7.182556 3.2836-7.182555 7.182556s3.2836 7.182556 7.182555 7.182555h7.182556v7.182556c0 3.898955 3.2836 7.182556 7.182555 7.182556s7.182556-3.2836 7.182556-7.182556v-7.182556h7.182555c3.898955 0 7.182556-3.2836 7.182556-7.182555s-3.2836-7.182556-7.182556-7.182556z" fill="#FBD20A" /><path d="M195.879501 923.566065c-9.440223 0-17.238133-7.797911-17.238133-17.238134 0-9.440223 7.797911-17.238133 17.238133-17.238133 9.440223 0 17.238133 7.797911 17.238134 17.238133 0 9.439199-7.797911 17.238133-17.238134 17.238134z m0-20.111156c-1.641288 0-2.873022 1.231734-2.873022 2.873022s1.231734 2.873022 2.873022 2.873022 2.873022-1.231734 2.873023-2.873022c0-1.642312-1.231734-2.873022-2.873023-2.873022z" fill="#4E9BD4" /><path d="M192.595901 118.704145h498.061849v699.789784H192.595901z" fill="#FFFFFF" /><path d="M690.65775 830.807174H192.595901c-6.771978 0-12.313245-5.541267-12.313245-12.313245V118.704145c0-6.771978 5.541267-12.313245 12.313245-12.313245h498.061849c6.771978 0 12.313245 5.541267 12.313245 12.313245v699.789784c0 6.773001-5.541267 12.313245-12.313245 12.313245z m-485.748604-24.625466h473.435359V131.01739H204.909146v675.164318z" fill="" /><path d="M254.161102 182.321212h498.061849V882.110996H254.161102z" fill="#FFFFFF" /><path d="M752.222951 894.425264H254.161102c-6.771978 0-12.313245-5.541267-12.313245-12.313245V182.321212c0-6.771978 5.541267-12.313245 12.313245-12.313245h498.061849c6.771978 0 12.313245 5.541267 12.313245 12.313245V882.110996c0 6.773001-5.541267 12.314269-12.313245 12.314268z m-485.748604-24.626489h473.435359V194.634457H266.474347v675.164318z" fill="" /><path d="M315.726303 243.886413h498.061849v699.789783H315.726303z" fill="#FFFFFF" /><path d="M813.788152 955.990465H315.726303c-6.771978 0-12.313245-5.541267-12.313245-12.313245V243.886413c0-6.771978 5.541267-12.313245 12.313245-12.313245h498.061849c6.771978 0 12.313245 5.541267 12.313245 12.313245V943.67722c0 6.771978-5.541267 12.313245-12.313245 12.313245z m-485.748604-24.62649h473.435359V256.199658H328.039548v675.164317z" fill="" /><path d="M741.346217 468.599549H388.373014c-6.771978 0-12.313245-5.541267-12.313245-12.313245s5.541267-12.313245 12.313245-12.313245h352.973203c6.771978 0 12.313245 5.541267 12.313245 12.313245s-5.541267 12.313245-12.313245 12.313245zM627.040683 378.508903h-238.667669c-6.771978 0-12.313245-5.541267-12.313245-12.313245s5.541267-12.313245 12.313245-12.313245h238.667669c6.771978 0 12.313245 5.541267 12.313245 12.313245 0 6.773001-5.541267 12.313245-12.313245 12.313245zM741.346217 524.008127H388.373014c-6.771978 0-12.313245-5.541267-12.313245-12.313245s5.541267-12.313245 12.313245-12.313245h352.973203c6.771978 0 12.313245 5.541267 12.313245 12.313245s-5.541267 12.313245-12.313245 12.313245zM741.346217 579.416705H388.373014c-6.771978 0-12.313245-5.541267-12.313245-12.313245s5.541267-12.313245 12.313245-12.313245h352.973203c6.771978 0 12.313245 5.541267 12.313245 12.313245s-5.541267 12.313245-12.313245 12.313245zM741.346217 634.825284H388.373014c-6.771978 0-12.313245-5.541267-12.313245-12.313245s5.541267-12.313245 12.313245-12.313245h352.973203c6.771978 0 12.313245 5.541267 12.313245 12.313245s-5.541267 12.313245-12.313245 12.313245zM741.346217 690.233862H388.373014c-6.771978 0-12.313245-5.541267-12.313245-12.313245s5.541267-12.313245 12.313245-12.313245h352.973203c6.771978 0 12.313245 5.541267 12.313245 12.313245s-5.541267 12.313245-12.313245 12.313245zM741.346217 745.64244H388.373014c-6.771978 0-12.313245-5.541267-12.313245-12.313245s5.541267-12.313245 12.313245-12.313245h352.973203c6.771978 0 12.313245 5.541267 12.313245 12.313245s-5.541267 12.313245-12.313245 12.313245zM741.346217 801.051018H388.373014c-6.771978 0-12.313245-5.541267-12.313245-12.313245s5.541267-12.313245 12.313245-12.313245h352.973203c6.771978 0 12.313245 5.541267 12.313245 12.313245s-5.541267 12.313245-12.313245 12.313245zM627.040683 856.459597h-238.667669c-6.771978 0-12.313245-5.541267-12.313245-12.313245s5.541267-12.313245 12.313245-12.313245h238.667669c6.771978 0 12.313245 5.541267 12.313245 12.313245s-5.541267 12.313245-12.313245 12.313245z" fill="" /></svg>