<?xml version="1.0" ?>
<!DOCTYPE svg  PUBLIC '-//W3C//DTD SVG 1.1//EN'  'http://www.w3.org/Graphics/SVG/1.1/DTD/svg11.dtd'>
<!-- Uploaded to: SVG Repo, www.svgrepo.com, Generator: SVG Repo Mixer Tools -->
<svg width="800px" height="800px" viewBox="0 0 512 512" version="1.1" xml:space="preserve" xmlns="http://www.w3.org/2000/svg" xmlns:xlink="http://www.w3.org/1999/xlink">
<g id="_x35_01_x2C__digital_art__x2C__digital__x2C__art__x2C__education">
<g>
<polygon points="286,366 256,456 226,366   " style="fill:#57606F;"/>
<polygon points="236.875,373.625 283.458,373.625 286,366 226,366 256,456 260.167,443.5   " style="fill:#414A56;"/>
<path d="M286,56v30h-60V56c0-16.57,13.43-30,30-30C272.57,26,286,39.43,286,56z" style="fill:#FF7979;"/>
<path d="M233,63c0-16.57,13.43-30,30-30c6.498,0,12.507,2.072,17.418,5.582    C274.978,30.968,266.072,26,256,26c-16.57,0-30,13.43-30,30v30h7V63z" style="fill:#D65B5B;"/>
<path d="M286,86v280h-60V86H286z" style="fill:#FFD8A8;"/>
<polygon points="233.75,94.375 286,94.375 286,86 226,86 226,366 233.75,366   " style="fill:#EABD8C;"/>
<rect height="20" width="20" x="246" y="286"/>
<rect height="20" width="20" x="246" y="256"/>
<rect height="20" width="20" x="246" y="226"/>
<path d="M286,371c-2.762,0-5-2.238-5-5V86c0-2.761,2.238-5,5-5s5,2.239,5,5v280C291,368.762,288.762,371,286,371z"/>
<path d="M226,371c-2.761,0-5-2.238-5-5V86c0-2.761,2.239-5,5-5s5,2.239,5,5v280C231,368.762,228.761,371,226,371z"/>
<path d="M286,91h-60c-2.761,0-5-2.239-5-5V56c0-19.299,15.701-35,35-35s35,15.701,35,35v30C291,88.761,288.762,91,286,91z M231,81    h50V56c0-13.785-11.215-25-25-25s-25,11.215-25,25V81z"/>
<path d="M256,461c-2.152,0-4.063-1.377-4.743-3.419l-30-90c-0.508-1.524-0.253-3.201,0.687-4.505S224.393,361,226,361h60    c1.607,0,3.116,0.772,4.057,2.076c0.939,1.304,1.195,2.98,0.687,4.505l-30,90C260.063,459.623,258.152,461,256,461z M232.937,371    L256,440.188L279.063,371H232.937z"/>
<path d="M316.004,331c-1.521,0-3.021-0.69-4.004-2c-1.657-2.209-1.209-5.343,1-7l38-28.5V106c0-2.761,2.238-5,5-5s5,2.239,5,5v190    c0,1.574-0.741,3.056-2,4l-40,30C318.101,330.675,317.048,331,316.004,331z"/>
<path d="M336.002,381c-1.409,0-2.81-0.593-3.798-1.746c-1.798-2.097-1.555-5.253,0.542-7.05L401,313.7V166c0-2.761,2.238-5,5-5    s5,2.239,5,5v150c0,1.46-0.638,2.847-1.746,3.796l-70,60C338.312,380.604,337.154,381,336.002,381z"/>
<path d="M446,241c-1.279,0-2.56-0.488-3.535-1.464c-1.953-1.953-1.953-5.119,0-7.071L461,213.929V56c0-2.761,2.238-5,5-5    s5,2.239,5,5v160c0,1.326-0.526,2.598-1.465,3.536l-20,20C448.56,240.512,447.279,241,446,241z"/>
<path d="M195.996,331c-1.044,0-2.097-0.325-2.996-1l-40-30c-1.259-0.944-2-2.426-2-4V106c0-2.761,2.239-5,5-5s5,2.239,5,5v187.5    l38,28.5c2.209,1.657,2.657,4.791,1,7C199.018,330.31,197.516,331,195.996,331z"/>
<path d="M175.998,381c-1.151,0-2.309-0.396-3.251-1.204l-70-60C101.638,318.847,101,317.46,101,316V166c0-2.761,2.239-5,5-5    s5,2.239,5,5v147.7l68.254,58.504c2.097,1.797,2.339,4.953,0.542,7.05C178.808,380.407,177.407,381,175.998,381z"/>
<path d="M66,241c-1.28,0-2.559-0.488-3.536-1.464l-20-20C41.527,218.598,41,217.326,41,216V56c0-2.761,2.239-5,5-5s5,2.239,5,5    v157.929l18.536,18.536c1.953,1.953,1.953,5.119,0,7.071C68.559,240.512,67.28,241,66,241z"/>
<path d="M396,491H116c-2.761,0-5-2.238-5-5s2.239-5,5-5h280c2.762,0,5,2.238,5,5S398.762,491,396,491z"/>
</g>
</g>
<g id="Layer_1"/>
</svg>